<svg xmlns="http://www.w3.org/2000/svg" width="24" height="24" viewBox="0 0 24 24"><defs><mask id="k0n4b" width="2" height="2" x="-1" y="-1"><path fill="#fff" d="M4 1h16v16H4z"/><path d="M5 16h2v-2H5zm-1-3h16v4H4zm1-3h2V8H5zM4 7h16v4H4zm3-5H5v2h2zm13-1v4H4V1z"/></mask><filter id="k0n4a" width="48" height="51" x="-12" y="-15" filterUnits="userSpaceOnUse"><feOffset dy="3" in="SourceGraphic" result="FeOffset1082Out"/><feGaussianBlur in="FeOffset1082Out" result="FeGaussianBlur1083Out" stdDeviation="2.4 2.4"/></filter></defs><g><g opacity=".4"><g filter="url(#k0n4a)"><path fill="none" d="M5 16h2v-2H5zm-1-3h16v4H4zm1-3h2V8H5zM4 7h16v4H4zm3-5H5v2h2zm13-1v4H4V1z" mask="url(&quot;#k0n4b&quot;)"/><path fill-opacity=".16" d="M5 16h2v-2H5zm-1-3h16v4H4zm1-3h2V8H5zM4 7h16v4H4zm3-5H5v2h2zm13-1v4H4V1z"/></g><path fill="#fff" d="M5 16h2v-2H5zm-1-3h16v4H4zm1-3h2V8H5zM4 7h16v4H4zm3-5H5v2h2zm13-1v4H4V1z"/></g></g></svg>